<?xml version="1.0" encoding="UTF-8"?>
<svg width="159px" height="24px" viewBox="0 0 159 24" version="1.1" xmlns="http://www.w3.org/2000/svg" xmlns:xlink="http://www.w3.org/1999/xlink">
    <!-- Generator: Sketch 46.2 (44496) - http://www.bohemiancoding.com/sketch -->
    <title>wordmark</title>
    <desc>Created with Sketch.</desc>
    <defs></defs>
    <g id="Page-1" stroke="none" stroke-width="1" fill="none" fill-rule="evenodd">
        <g id="v.3.1--mobile" transform="translate(-15.000000, -30.000000)" fill="#E0432C">
            <g id="header">
                <path d="M15,30.0001368 L15,47.5525532 L18.1583489,47.5525532 L18.1395236,41.1275351 L24.0673444,41.1275351 C24.4659031,41.1275351 24.6165056,40.8447139 24.7068671,40.4568605 C24.8972716,39.5361875 25.2162261,37.9929796 25.2162261,37.9929796 L18.1395236,37.9929796 L18.1395236,33.1866613 C18.1395236,33.1866613 23.8554253,33.1888494 25.6373752,33.1888494 C25.8622032,33.1888494 26.1978315,33.030207 26.3005639,32.5154397 C26.4909685,31.5794494 26.8120745,30.0001368 26.8120745,30.0001368 L15,30.0001368 Z M32.5209838,35.0148784 C28.9059867,35.0148784 26.6496389,37.844184 26.6496389,41.2839893 C26.6496389,44.7473175 28.8602681,47.5525532 32.5441121,47.5525532 C36.2279561,47.5525532 38.4617134,44.7473175 38.4617134,41.2839893 C38.4611755,37.844184 36.135981,35.0148784 32.5209838,35.0148784 L32.5209838,35.0148784 Z M32.7097748,45.0449088 C30.6330743,45.0449088 29.5831599,43.3217239 29.5831599,41.4754543 C29.5831599,39.6532546 30.6567404,37.8808358 32.7097748,37.8808358 C34.6235019,37.8808358 35.8363896,39.6532546 35.8363896,41.4754543 C35.8369275,43.3217239 34.7864753,45.0449088 32.7097748,45.0449088 L32.7097748,45.0449088 Z M40.1904146,34.3102873 L40.1904146,47.5525532 L42.9701059,47.5525532 L42.9701059,33.2238602 C42.9701059,33.2238602 41.573268,33.4853467 40.7600147,33.6374246 C40.2603372,33.7254985 40.1904146,33.9738559 40.1904146,34.3102873 L40.1904146,34.3102873 Z M44.9849518,31.0767171 L44.9849518,47.5525532 L47.7641053,47.5525532 L47.7641053,30.0001368 C47.7641053,30.0001368 46.3747975,30.2616232 45.5610063,30.4147952 C45.0543366,30.5072455 44.9849518,30.8185128 44.9849518,31.0767171 L44.9849518,31.0767171 Z M55.3722194,35.0148784 C51.7572222,35.0148784 49.5008745,37.844184 49.5008745,41.2839893 C49.5008745,44.7473175 51.7115036,47.5525532 55.3953476,47.5525532 C59.0797295,47.5525532 61.312949,44.7473175 61.312949,41.2839893 C61.3124111,37.844184 58.9872165,35.0148784 55.3722194,35.0148784 L55.3722194,35.0148784 Z M55.4066428,45.0449088 C53.3299423,45.0449088 52.2800279,43.3217239 52.2800279,41.4754543 C52.2800279,39.6532546 53.3536084,37.8808358 55.4066428,37.8808358 C57.3203699,37.8808358 58.5337955,39.6532546 58.5337955,41.4754543 C58.5337955,43.3217239 57.4838811,45.0449088 55.4066428,45.0449088 L55.4066428,45.0449088 Z M77.4015957,35.0148784 C77.2396981,35.0148784 76.955167,35.2254899 76.8228519,35.6975879 C76.2564791,37.8556719 74.2507769,44.3928337 74.2507769,44.3928337 L71.8997648,35.0148784 L69.5702673,35.0148784 L67.2402319,44.3928337 C67.2402319,44.3928337 65.2388326,37.870442 64.6703083,35.7046994 C64.5589701,35.3190342 64.3760956,35.0148784 64.1163064,35.0148784 L61.5286332,35.0148784 L65.586294,47.5525532 L68.6779476,47.5525532 L69.788103,43.8622022 L70.7460423,39.6910006 L71.7039815,43.8622022 L72.8146748,47.5525532 L75.9063283,47.5525532 L79.9413988,35.0148784 L77.4015957,35.0148784 Z M85.9805579,30.0001368 L79.4707661,47.5525532 L80.6734344,47.5525532 L82.2488438,43.2396674 L82.6839774,41.9858453 L82.6925832,41.9634165 L90.4717387,41.9634165 L90.4798067,41.9858453 L90.9154781,43.2396674 L92.5118643,47.5525532 L93.7145326,47.5525532 L87.2042029,30.0001368 L85.9805579,30.0001368 Z M82.9448424,41.1045593 L86.4189186,31.4328419 L89.8929949,41.1045593 L82.9448424,41.1045593 Z M100.500787,35.0148784 C98.8382438,35.0400424 97.1757001,35.7380691 96.2602522,37.4328078 L96.2602522,35.239166 L95.1038404,35.239166 L95.1038404,47.5525532 L96.2844562,47.5525532 L96.2844562,40.6975594 C96.2844562,38.1554513 97.9948699,36.235878 100.45238,36.2112611 C103.030371,36.1860971 104.692915,37.6817122 104.692915,40.4732718 L104.692915,47.5520061 L105.873531,47.5520061 L105.873531,40.4486549 C105.873531,37.0340135 103.681189,35.0148784 100.500787,35.0148784 L100.500787,35.0148784 Z M118.817275,37.908735 C117.852344,35.954151 115.946684,35.0148784 114.064154,35.0148784 C110.817057,35.0148784 108.158385,37.6040322 108.158385,41.4371613 C108.158385,45.2708375 110.817057,47.9108662 114.064154,47.9108662 C115.946684,47.9108662 117.687757,46.9967576 118.817275,45.0421736 L118.817275,47.7079133 L119.969922,47.7079133 L119.969922,35.1675034 L118.817275,35.1675034 L118.817275,37.908735 Z M113.953891,46.898837 C111.510904,46.898837 109.547693,44.7265299 109.547693,41.4809247 C109.547693,38.2358666 111.510904,36.0898176 113.953891,36.0898176 C119.952172,36.0892706 119.952172,46.898837 113.953891,46.898837 L113.953891,46.898837 Z M123.335887,47.5525532 L124.378271,47.5525532 L124.378271,30.0001368 L123.335887,30.0001368 L123.335887,47.5525532 Z M144.573525,46.7697349 C142.748008,46.7697349 142.416144,45.5782756 142.416144,43.8797076 L142.416144,36.2495541 L146.399042,36.2495541 L146.399042,35.2101727 L142.416144,35.2101727 L142.416144,31.4328419 L141.27802,31.7178513 L141.27802,35.2101727 L138.788238,35.2101727 L138.788238,36.2495541 L141.27802,36.2495541 L141.27802,43.8797076 C141.27802,46.3386651 142.084281,47.9108662 144.573525,47.9108662 C145.308787,47.9108662 146.043512,47.6570383 146.778775,47.2768436 L146.375914,46.2626261 C145.783185,46.567329 145.143125,46.7697349 144.573525,46.7697349 L144.573525,46.7697349 Z M148.986715,47.5525532 L150.029099,47.5525532 L150.029099,35.0154255 L148.986715,35.0154255 L148.986715,47.5525532 Z M148.639254,30.8956459 C148.639254,32.0898404 150.376023,32.0898404 150.376023,30.8956459 C150.376023,29.7014514 148.639254,29.7014514 148.639254,30.8956459 L148.639254,30.8956459 Z M158.21273,36.159292 C159.485859,36.159292 160.80632,36.631937 161.766948,37.627008 L162.535559,36.8556776 C161.334504,35.6368661 159.774155,35.0148784 158.21273,35.0148784 C154.778993,35.0148784 152.11333,37.4032674 152.11333,41.2839893 C152.11333,45.1647112 154.874734,47.5525532 158.21273,47.5525532 C159.774155,47.5525532 161.334504,46.9551824 162.535559,45.711754 L161.742744,44.8906427 C160.782653,45.8857136 159.485859,46.4081395 158.21273,46.4081395 C155.5234,46.4081395 153.265977,44.5925044 153.265977,41.2839893 C153.265977,37.9754742 155.5234,36.159292 158.21273,36.159292 L158.21273,36.159292 Z M169.092683,40.7555459 C167.602256,40.4771011 165.535237,40.1483284 165.487367,38.4798477 C165.438959,36.886859 167.217682,36.1538216 169.069016,36.1784385 C170.391091,36.1784385 171.56848,36.3808444 172.77061,37.4935295 L173.49135,36.6844532 C172.313424,35.5214401 170.799331,35.0154255 169.069016,35.0154255 C166.665293,34.9902615 164.333645,36.0520716 164.357848,38.5050117 C164.382052,41.0077327 166.665293,41.4628723 168.972738,41.867684 C170.919813,42.1959097 172.890554,42.5503935 172.842684,44.345241 C172.77061,46.3173304 170.583109,46.7221421 169.140553,46.7221421 C167.554386,46.7221421 165.775663,46.0897606 164.790293,44.5979748 L163.925404,45.4075982 C164.958645,47.0760788 167.025664,47.9108662 169.116887,47.9108662 C171.208109,47.9108662 173.923795,47.1772818 173.996407,44.42128 C174.116351,41.5137473 171.208109,41.1346466 169.092683,40.7555459 L169.092683,40.7555459 Z M133.457987,43.3425115 C133.132578,44.4158095 132.731868,45.8124099 132.356437,46.9398652 L132.256394,46.9398652 C131.805662,45.8124099 131.329651,44.4158095 130.954221,43.3425115 L127.782963,35.0154255 L126.62924,35.0154255 L131.780921,48.3627236 L131.454974,49.4901789 C130.854177,51.4496863 129.852671,52.8993498 128.375153,52.8993498 C128.024465,52.8993498 127.649034,52.8730918 127.398389,52.7658714 L127.148281,53.731949 C127.47369,53.8927796 127.924422,54 128.375153,54 C130.528769,54 131.730899,51.8791149 132.406997,49.7314248 L137.398931,35.0148784 L136.24467,35.0148784 L133.457987,43.3425115 Z" id="wordmark"></path>
            </g>
        </g>
    </g>
</svg>