<?xml version="1.0" encoding="UTF-8"?>
<svg width="27px" height="20px" viewBox="0 0 27 20" version="1.1" xmlns="http://www.w3.org/2000/svg" xmlns:xlink="http://www.w3.org/1999/xlink">
    <!-- Generator: Sketch 46.2 (44496) - http://www.bohemiancoding.com/sketch -->
    <title>Oval Copy</title>
    <desc>Created with Sketch.</desc>
    <defs></defs>
    <g id="Page-1" stroke="none" stroke-width="1" fill="none" fill-rule="evenodd">
        <g id="v.3.1--mobile(HamburgerMenu)" transform="translate(-319.000000, -824.000000)" fill-rule="nonzero" fill="#2E2E2E">
            <g id="main" transform="translate(15.000000, 117.000000)">
                <g id="card_01" transform="translate(1.000000, 79.000000)">
                    <g id="details" transform="translate(14.000000, 628.000000)">
                        <path d="M302.504216,19.9998595 C298.71443,20.0177917 295.353834,18.3179109 292.573334,15.5091287 C290.628058,13.5440651 289,10.9382504 289,9.99993475 C289,9.06246644 290.627302,6.46645395 292.574026,4.5041925 C295.353131,1.70290626 298.712155,0 302.5,0 C306.287845,0 309.646869,1.70290626 312.425974,4.5041925 C314.372698,6.46645395 316,9.06246644 316,9.99993475 C316,10.9365601 314.373467,13.522758 312.425281,15.4822261 C309.647579,18.276014 306.290119,19.9819457 302.504216,19.9998595 Z M302.495784,18.1817095 C305.754846,18.1662886 308.686781,16.6765665 311.155209,14.1938442 C312.787027,12.5525758 314.2,10.30594 314.2,9.99993475 C314.2,9.69144613 312.785954,7.43563812 311.154516,5.79117822 C308.686581,3.3035463 305.75664,1.81816995 302.5,1.81816995 C299.24336,1.81816995 296.313419,3.3035463 293.845484,5.79117822 C292.214046,7.43563812 290.8,9.69144613 290.8,9.99993475 C290.8,10.3109024 292.215112,12.5758836 293.846175,14.2235375 C296.313613,16.7160733 299.241558,18.1971076 302.495784,18.1817095 Z M302.5,15.4544446 C299.517662,15.4544446 297.1,13.0123774 297.1,9.99993475 C297.1,6.98749213 299.517662,4.54542488 302.5,4.54542488 C305.482338,4.54542488 307.9,6.98749213 307.9,9.99993475 C307.9,13.0123774 305.482338,15.4544446 302.5,15.4544446 Z M302.5,13.6362747 C304.488225,13.6362747 306.1,12.0082298 306.1,9.99993475 C306.1,7.99163967 304.488225,6.36359484 302.5,6.36359484 C300.511775,6.36359484 298.9,7.99163967 298.9,9.99993475 C298.9,12.0082298 300.511775,13.6362747 302.5,13.6362747 Z" id="Oval-Copy"></path>
                    </g>
                </g>
            </g>
        </g>
    </g>
</svg>